<?xml version="1.0" encoding="UTF-8" standalone="no"?>
<svg width="20px" height="20px" viewBox="0 0 20 20" version="1.1" xmlns="http://www.w3.org/2000/svg" xmlns:xlink="http://www.w3.org/1999/xlink">
    <!-- Generator: Sketch Beta 3.7.2 (28276) - http://www.bohemiancoding.com/sketch -->
    <title>icon-search</title>
    <desc>Created with Sketch Beta.</desc>
    <defs></defs>
    <g id="Assets" stroke="none" stroke-width="1" fill="none" fill-rule="evenodd">
        <g id="Web-assets" transform="translate(-182.000000, -111.000000)" fill="#000000">
            <path d="M198,126.589844 C198,126.699219 197.966797,126.794921 197.900391,126.876953 C197.833984,126.958985 197.742188,127 197.625,127 C197.523437,127 197.435547,126.962891 197.361328,126.888672 L192.761719,122.294922 C192.386717,122.603517 191.975588,122.839843 191.52832,123.003906 C191.081052,123.16797 190.613284,123.25 190.125,123.25 C189.746092,123.25 189.380861,123.201172 189.029297,123.103516 C188.677733,123.005859 188.349611,122.867188 188.044922,122.6875 C187.740233,122.507812 187.461915,122.291993 187.209961,122.040039 C186.958007,121.788085 186.742188,121.509767 186.5625,121.205078 C186.382812,120.900389 186.244141,120.572267 186.146484,120.220703 C186.048828,119.869139 186,119.503908 186,119.125 C186,118.746092 186.048828,118.380861 186.146484,118.029297 C186.244141,117.677733 186.382812,117.349611 186.5625,117.044922 C186.742188,116.740233 186.958007,116.461915 187.209961,116.209961 C187.461915,115.958007 187.740233,115.742188 188.044922,115.5625 C188.349611,115.382812 188.677733,115.244141 189.029297,115.146484 C189.380861,115.048828 189.746092,115 190.125,115 C190.503908,115 190.869139,115.048828 191.220703,115.146484 C191.572267,115.244141 191.900389,115.382812 192.205078,115.5625 C192.509767,115.742188 192.788085,115.958007 193.040039,116.209961 C193.291993,116.461915 193.507812,116.740233 193.6875,117.044922 C193.867188,117.349611 194.005859,117.677733 194.103516,118.029297 C194.201172,118.380861 194.25,118.746092 194.25,119.125 C194.25,119.613284 194.16797,120.081052 194.003906,120.52832 C193.839843,120.975588 193.603517,121.386717 193.294922,121.761719 C193.353516,121.820313 193.465819,121.93164 193.631836,122.095703 C193.797852,122.259766 193.997069,122.455077 194.229492,122.681641 C194.461915,122.908204 194.715819,123.157225 194.991211,123.428711 C195.266603,123.700197 195.543944,123.975585 195.823242,124.254883 C196.10254,124.534181 196.373046,124.806639 196.634766,125.072266 C196.896486,125.337892 197.128905,125.578124 197.332031,125.792969 C197.535157,126.007814 197.697265,126.186523 197.818359,126.329102 C197.939454,126.47168 198,126.558594 198,126.589844 L198,126.589844 Z M190.125,122.5 C190.589846,122.5 191.027342,122.411134 191.4375,122.233398 C191.847658,122.055663 192.205077,121.814455 192.509766,121.509766 C192.814455,121.205077 193.055663,120.847658 193.233398,120.4375 C193.411134,120.027342 193.5,119.589846 193.5,119.125 C193.5,118.660154 193.411134,118.222658 193.233398,117.8125 C193.055663,117.402342 192.814455,117.044923 192.509766,116.740234 C192.205077,116.435545 191.847658,116.194337 191.4375,116.016602 C191.027342,115.838866 190.589846,115.75 190.125,115.75 C189.660154,115.75 189.222658,115.838866 188.8125,116.016602 C188.402342,116.194337 188.044923,116.435545 187.740234,116.740234 C187.435545,117.044923 187.194337,117.402342 187.016602,117.8125 C186.838866,118.222658 186.75,118.660154 186.75,119.125 C186.75,119.589846 186.838866,120.027342 187.016602,120.4375 C187.194337,120.847658 187.435545,121.205077 187.740234,121.509766 C188.044923,121.814455 188.402342,122.055663 188.8125,122.233398 C189.222658,122.411134 189.660154,122.5 190.125,122.5 L190.125,122.5 Z" id="icon"></path>
        </g>
    </g>
</svg>